<svg width="111" height="33" viewBox="0 0 111 33" fill="none" xmlns="http://www.w3.org/2000/svg">
<rect width="111" height="33" rx="3" fill="white"/>
<g clip-path="url(#clip0_3574_76)">
<path d="M12.3657 11.538L11.5427 14.5686L16.2531 11.5207L13.1724 23.0212L16.3011 23.0239L20.8521 6.03711" fill="#3395FF"/>
<path d="M7.2958 18.1891L6 23.0239H12.4126L15.0366 13.1886L7.2958 18.1891ZM29.571 13.9325C29.4142 14.5154 29.1122 14.9436 28.6618 15.217C28.2125 15.4899 27.5818 15.6269 26.7678 15.6269H24.1814L25.0895 12.2391H27.6759C28.4889 12.2391 29.0474 12.3751 29.3505 12.6522C29.6535 12.9292 29.7267 13.3527 29.571 13.9382M32.2488 13.8651C32.578 12.6417 32.4421 11.7007 31.8402 11.0419C31.2393 10.3884 30.1849 10.0591 28.6801 10.0591H22.9081L19.4335 23.0297H22.2377L23.638 17.8017H25.4772C25.89 17.8017 26.215 17.8697 26.4522 18.0004C26.6899 18.1363 26.8294 18.3716 26.8723 18.7114L27.3728 23.0297H30.3772L29.8902 19.0042C29.791 18.1049 29.3797 17.5769 28.6571 17.4201C29.5783 17.1534 30.35 16.7091 30.9718 16.0922C31.5892 15.4798 32.0304 14.7123 32.2488 13.8703M39.0653 18.3873C38.8302 19.2656 38.4697 19.9295 37.9822 20.3948C37.4942 20.8601 36.911 21.0901 36.2308 21.0901C35.5379 21.0901 35.0682 20.8653 34.82 20.4105C34.5713 19.9556 34.5629 19.2969 34.7939 18.4343C35.0248 17.5717 35.3932 16.8973 35.9 16.4111C36.4068 15.9249 36.9993 15.6818 37.6796 15.6818C38.3589 15.6818 38.8239 15.917 39.059 16.3839C39.2994 16.8528 39.3046 17.5236 39.0695 18.3967L39.0653 18.3873ZM40.2942 13.7971L39.9431 15.1093C39.7916 14.6388 39.4974 14.2624 39.0627 13.9801C38.6269 13.703 38.0877 13.5618 37.4445 13.5618C36.6555 13.5618 35.8979 13.7657 35.1716 14.1735C34.4454 14.5813 33.8079 15.1564 33.2645 15.8987C32.7211 16.6411 32.324 17.4828 32.068 18.4291C31.8172 19.3806 31.765 20.2118 31.9165 20.9333C32.0732 21.66 32.4024 22.2141 32.9092 22.601C33.4213 22.9931 34.0744 23.1865 34.8738 23.1865C35.5091 23.1898 36.1371 23.0523 36.713 22.784C37.2824 22.527 37.7888 22.1488 38.1969 21.6757L37.8312 23.0433H40.5429L43.0191 13.8018H40.3021L40.2942 13.7971ZM52.7637 13.7971H44.8776L44.3264 15.8569H48.9149L42.8487 21.1006L42.3304 23.0349H50.4709L51.0222 20.9751H46.1055L52.2647 15.653M59.7051 18.3716C59.4611 19.2812 59.099 19.9651 58.6209 20.4105C58.1428 20.8601 57.5639 21.0849 56.8841 21.0849C55.4629 21.0849 54.9958 20.1804 55.4807 18.3716C55.721 17.4724 56.0847 16.7964 56.5706 16.341C57.0565 15.8841 57.6454 15.6562 58.3377 15.6562C59.0169 15.6562 59.4757 15.8825 59.7119 16.3384C59.948 16.7932 59.9459 17.4713 59.7051 18.3705M61.2924 14.1447C60.668 13.7558 59.8712 13.5613 58.8994 13.5613C57.9155 13.5613 57.0048 13.7547 56.1667 14.1416C55.3321 14.5261 54.5986 15.1 54.0245 15.8177C53.434 16.5444 53.0092 17.3966 52.7485 18.369C52.4925 19.3377 52.4611 20.1883 52.6597 20.9165C52.8582 21.6432 53.2762 22.2026 53.9032 22.5895C54.5355 22.9795 55.3401 23.1735 56.3276 23.1735C57.2995 23.1735 58.2034 22.9779 59.0342 22.589C59.865 22.1979 60.5756 21.6427 61.166 20.9108C61.7564 20.182 62.1796 19.3319 62.4409 18.3595C62.7021 17.3871 62.7335 16.5381 62.5349 15.8083C62.3364 15.0816 61.9236 14.5222 61.3018 14.1327M70.9733 16.2657L71.6682 13.7511C71.4331 13.6308 71.1248 13.5681 70.7382 13.5681C70.1164 13.5681 69.5207 13.7218 68.946 14.0334C68.4517 14.2979 68.0316 14.6712 67.6763 15.1386L68.0368 13.7845L67.2494 13.7877H65.3162L62.8239 23.0255H65.5738L66.867 18.1964C67.0551 17.4943 67.3936 16.9417 67.8822 16.5496C68.3681 16.156 68.9742 15.9589 69.7057 15.9589C70.1551 15.9589 70.5731 16.0618 70.9702 16.2673M78.6248 18.416C78.3896 19.2786 78.0343 19.9373 77.5484 20.3922C77.0625 20.8491 76.4773 21.077 75.798 21.077C75.1188 21.077 74.6538 20.847 74.4082 20.387C74.1574 19.9243 74.1522 19.2577 74.3873 18.3815C74.6224 17.5058 74.9829 16.834 75.4793 16.3687C75.9757 15.8998 76.5609 15.6656 77.2401 15.6656C77.9089 15.6656 78.3583 15.9061 78.5986 16.3923C78.839 16.8785 78.8442 17.5529 78.6133 18.4155M80.5361 14.1599C80.0266 13.7521 79.3761 13.5482 78.5871 13.5482C77.8959 13.5482 77.237 13.7051 76.6121 14.0219C75.9877 14.3382 75.4809 14.7695 75.0916 15.3153L75.101 15.2526L75.5624 13.7835H72.8767L72.1923 16.34L72.1714 16.4289L69.3499 26.9601H72.1034L73.5247 21.6589C73.6657 22.1305 73.9531 22.5006 74.392 22.7683C74.8309 23.0349 75.3727 23.1672 76.017 23.1672C76.8164 23.1672 77.5792 22.9738 78.3029 22.5869C79.0292 22.199 79.6562 21.6406 80.1891 20.9192C80.7221 20.1977 81.1176 19.3612 81.37 18.415C81.626 17.4671 81.6782 16.6218 81.532 15.882C81.383 15.1412 81.0533 14.5677 80.5444 14.162M89.6699 18.3784C89.4347 19.2514 89.0742 19.9206 88.5883 20.3807C88.1024 20.8439 87.5172 21.0744 86.8379 21.0744C86.143 21.0744 85.6728 20.8496 85.4272 20.3948C85.1764 19.94 85.1712 19.2812 85.4011 18.4186C85.631 17.556 85.9977 16.8816 86.5046 16.3954C87.0114 15.9092 87.6044 15.6666 88.2847 15.6666C88.964 15.6666 89.4238 15.9019 89.6641 16.3672C89.9045 16.834 89.906 17.5048 89.672 18.3799L89.6699 18.3784ZM90.8977 13.7856L90.5461 15.0978C90.3946 14.6247 90.102 14.2483 89.6683 13.9686C89.2294 13.6894 88.6912 13.5503 88.0486 13.5503C87.2596 13.5503 86.4978 13.7542 85.7705 14.162C85.0442 14.5698 84.4067 15.1417 83.8633 15.882C83.3199 16.6223 82.9228 17.4661 82.6668 18.4123C82.4134 19.3623 82.3638 20.1951 82.5153 20.9197C82.6684 21.6411 82.9981 22.1984 83.508 22.5874C84.017 22.9743 84.6732 23.1698 85.4726 23.1698C86.1153 23.1698 86.7292 23.036 87.3118 22.7673C87.8799 22.5091 88.385 22.1304 88.7921 21.6574L88.4263 23.026H91.1381L93.6137 13.7882H90.9019L90.8977 13.7856ZM104.998 13.7887L105 13.7861H103.333C103.28 13.7861 103.233 13.7887 103.184 13.7898H102.32L101.875 14.4067L101.766 14.5531L101.719 14.6262L98.2049 19.5238L97.4786 13.7887H94.6007L96.0585 22.5038L92.8399 26.9632H95.7084L96.4869 25.8586C96.5089 25.8261 96.5287 25.799 96.5548 25.7645L97.464 24.4731L97.4901 24.4365L101.562 18.6596L104.995 13.7976L105 13.7945H104.998V13.7887Z" fill="#072654"/>
</g>
<defs>
<clipPath id="clip0_3574_76">
<rect width="99" height="21" fill="white" transform="translate(6 6)"/>
</clipPath>
</defs>
</svg>
